<?xml version="1.0" encoding="iso-8859-1"?>
<!-- Uploaded to: SVG Repo, www.svgrepo.com, Generator: SVG Repo Mixer Tools -->
<svg version="1.1" id="Layer_1" xmlns="http://www.w3.org/2000/svg" xmlns:xlink="http://www.w3.org/1999/xlink" 
	 viewBox="0 0 512 512" xml:space="preserve">
<rect x="89.543" y="194.864" width="16.002" height="251.927"/>
<rect x="241.433" y="194.864" width="16.002" height="251.927"/>
<rect x="288.235" y="194.864" width="31.995" height="251.927"/>
<rect x="351.03" y="194.864" width="16.002" height="251.927"/>
<rect x="405.824" y="194.864" width="16.002" height="251.927"/>
<rect x="136.775" y="194.864" width="47.997" height="251.927"/>
<g>
	<path style="fill:#E21B1B;" d="M118.264,113.36c0,14.096-5.688,23.76-17.32,23.76c-11.776,0-16.96-10.584-17.032-23.488
		c0-13.176,5.6-23.624,17.392-23.624C113.496,90.008,118.264,100.88,118.264,113.36z M94.632,113.64
		c-0.064,10.448,2.456,15.424,6.592,15.424c4.136,0,6.4-5.192,6.4-15.568c0-10.096-2.176-15.424-6.456-15.424
		c-3.936,0-6.6,4.976-6.536,15.528V113.64z"/>
	<path style="fill:#E21B1B;" d="M157.168,113.36c0,14.096-5.688,23.76-17.32,23.76c-11.776,0-16.96-10.584-17.032-23.488
		c0-13.176,5.6-23.624,17.392-23.624C152.4,90.008,157.168,100.88,157.168,113.36z M133.536,113.64
		c-0.064,10.448,2.456,15.424,6.592,15.424c4.136,0,6.4-5.192,6.4-15.568c0-10.096-2.176-15.424-6.456-15.424
		c-3.936,0-6.6,4.976-6.536,15.528V113.64z"/>
	<path style="fill:#E21B1B;" d="M192.848,99.544H175.2l-0.984,7.016c0.977-0.118,1.961-0.163,2.944-0.136
		c4.242-0.148,8.429,1.001,12,3.296c3.71,2.582,5.808,6.912,5.536,11.424c-0.676,9.569-8.98,16.777-18.548,16.101
		c-0.338-0.024-0.675-0.058-1.012-0.101c-4.37,0.104-8.708-0.782-12.688-2.592l1.888-8c3.25,1.438,6.758,2.2,10.312,2.24
		c4.416,0,9.112-2.104,9.112-6.944c0-4.696-3.72-7.576-12.8-7.576c-2.064-0.019-4.126,0.123-6.168,0.424l3.016-23.904h25.096
		L192.848,99.544z"/>
	<path style="fill:#E21B1B;" d="M220.184,136.352V125.48H200v-6.944l17.248-27.76h13.04v26.712h5.464v8h-5.464v10.872
		L220.184,136.352z M220.184,117.488V107.4c0-2.736,0.136-5.536,0.352-8.48h-0.28c-1.472,2.944-2.664,5.6-4.208,8.48l-6.096,9.952
		v0.136L220.184,117.488z"/>
	<path style="fill:#E21B1B;" d="M270.656,99.544h-17.672L252,106.56c0.977-0.118,1.961-0.163,2.944-0.136
		c4.242-0.151,8.43,0.998,12,3.296c3.71,2.582,5.808,6.912,5.536,11.424c-0.676,9.569-8.98,16.777-18.548,16.101
		c-0.338-0.024-0.675-0.058-1.011-0.101c-4.37,0.104-8.708-0.782-12.688-2.592l1.888-8c3.25,1.438,6.758,2.2,10.312,2.24
		c4.416,0,9.112-2.104,9.112-6.944c0-4.696-3.712-7.576-12.8-7.576c-2.064-0.019-4.126,0.123-6.168,0.424l3.016-23.904h25.104
		L270.656,99.544z"/>
	<path style="fill:#E21B1B;" d="M297.984,136.352V125.48H277.8v-6.944l17.24-27.76h13.04v26.712h5.472v8h-5.472v10.872
		L297.984,136.352z M297.984,117.488V107.4c0-2.736,0.144-5.536,0.352-8.48h-0.288c-1.472,2.944-2.656,5.6-4.2,8.48l-6.104,9.952
		v0.136L297.984,117.488z"/>
	<path style="fill:#E21B1B;" d="M331.632,100.248h-0.128l-8.696,4.136l-1.752-8l12.056-5.6h8.84v45.6h-10.32V100.248z"/>
	<path style="fill:#E21B1B;" d="M356.944,136.352v-6.448l5.88-5.328c9.96-8.904,14.8-14.024,14.936-19.352
		c0-3.72-2.24-6.664-7.496-6.664c-3.57,0.176-6.987,1.507-9.736,3.792l-3.024-7.648c4.355-3.109,9.585-4.753,14.936-4.696
		c7.754-1.018,14.864,4.443,15.882,12.197c0.091,0.698,0.131,1.402,0.118,2.107c-1.07,7.969-5.48,15.108-12.128,19.632l-4.2,3.504
		v0.136h17.168v8.8L356.944,136.352z"/>
	<path style="fill:#E21B1B;" d="M426.256,99.544H408.6l-0.984,7.016c0.977-0.118,1.961-0.163,2.944-0.136
		c4.242-0.151,8.43,0.998,12,3.296c3.71,2.582,5.808,6.912,5.536,11.424c-0.681,9.572-8.992,16.781-18.564,16.101
		c-0.335-0.024-0.67-0.058-1.005-0.101c-4.37,0.104-8.708-0.782-12.688-2.592l1.896-8c3.234,1.435,6.726,2.201,10.264,2.248
		c4.424,0,9.12-2.104,9.12-6.944c0-4.696-3.72-7.576-12.84-7.576c-2.061-0.019-4.121,0.123-6.16,0.424l3.016-23.904h25.096
		L426.256,99.544z"/>
</g>
<polygon points="16,80.056 0,80.056 0,0 273.584,0 297.472,23.896 512,23.896 512,39.896 290.848,39.896 266.952,16 16,16 "/>
<polygon points="512,512 381.584,512 381.584,496.001 496.001,496.001 496.001,381.584 512,381.584 "/>
</svg>